<svg width="39" height="34" viewBox="0 0 39 34" fill="none" xmlns="http://www.w3.org/2000/svg">
<path d="M34.406 0.000976672H4.58801C3.3712 0.000976672 2.2042 0.48431 1.34378 1.34473C0.483364 2.20514 0 3.37212 0 4.58893V29.361C0 30.5778 0.483364 31.7447 1.34378 32.6052C2.2042 33.4656 3.3712 33.949 4.58801 33.949H34.407C35.6238 33.949 36.7908 33.4656 37.6512 32.6052C38.5116 31.7447 38.995 30.5778 38.995 29.361V4.58795C38.9949 3.98545 38.8761 3.38887 38.6454 2.83228C38.4147 2.27568 38.0766 1.77 37.6505 1.34406C37.2244 0.918113 36.7185 0.58024 36.1618 0.349793C35.6051 0.119345 35.0085 0.000845335 34.406 0.000976672ZM5.96399 4.58893H33.03C33.3949 4.58893 33.7449 4.73389 34.003 4.99194C34.261 5.24999 34.406 5.60003 34.406 5.96497V12.9869C34.374 12.9869 34.343 12.978 34.306 12.978H27.488C26.2712 12.978 25.1042 13.4613 24.2438 14.3217C23.3834 15.1821 22.9 16.3492 22.9 17.566V29.311C22.9 29.328 22.9 29.3449 22.9 29.3619H16.036C16.036 29.3269 16.047 29.294 16.047 29.262V17.4329C16.0471 16.8304 15.9286 16.2338 15.698 15.6771C15.4675 15.1204 15.1296 14.6145 14.7035 14.1885C14.2774 13.7624 13.7716 13.4244 13.2149 13.1939C12.6582 12.9634 12.0615 12.8448 11.459 12.845H4.578V5.96393C4.578 5.78238 4.61391 5.60266 4.68369 5.43506C4.75346 5.26746 4.85572 5.11533 4.98456 4.98743C5.11339 4.85952 5.26626 4.75838 5.43436 4.68982C5.60246 4.62126 5.78245 4.58761 5.96399 4.58893ZM4.58801 16.5109C4.60901 16.5109 4.629 16.517 4.651 16.517H11.011C11.3759 16.517 11.7259 16.6619 11.984 16.92C12.242 17.178 12.387 17.528 12.387 17.8929V29.179C12.387 29.241 12.398 29.301 12.404 29.361H4.58899L4.58801 16.5109ZM26.575 29.3619V18.0229C26.575 17.658 26.72 17.308 26.978 17.05C27.2361 16.7919 27.5861 16.647 27.951 16.647H34.389H34.405V29.3619H26.575Z" fill="#FAB505"/>
</svg>
