<svg width="117" height="46" viewBox="0 0 117 46" fill="none" xmlns="http://www.w3.org/2000/svg">
<g clip-path="url(#clip0_501_179)">
<path d="M34.406 0.000976672H4.58801C3.3712 0.000976672 2.2042 0.48431 1.34378 1.34473C0.483364 2.20514 0 3.37212 0 4.58893V29.361C0 30.5778 0.483364 31.7447 1.34378 32.6052C2.2042 33.4656 3.3712 33.949 4.58801 33.949H34.407C35.6238 33.949 36.7908 33.4656 37.6512 32.6052C38.5116 31.7447 38.995 30.5778 38.995 29.361V4.58795C38.9949 3.98545 38.8761 3.38887 38.6454 2.83228C38.4147 2.27568 38.0766 1.77 37.6505 1.34406C37.2244 0.918113 36.7185 0.58024 36.1618 0.349793C35.6051 0.119345 35.0085 0.000845335 34.406 0.000976672ZM5.96399 4.58893H33.03C33.3949 4.58893 33.7449 4.73389 34.003 4.99194C34.261 5.24999 34.406 5.60003 34.406 5.96497V12.9869C34.374 12.9869 34.343 12.978 34.306 12.978H27.488C26.2712 12.978 25.1042 13.4613 24.2438 14.3217C23.3834 15.1821 22.9 16.3492 22.9 17.566V29.311C22.9 29.328 22.9 29.3449 22.9 29.3619H16.036C16.036 29.3269 16.047 29.294 16.047 29.262V17.4329C16.0471 16.8304 15.9286 16.2338 15.698 15.6771C15.4675 15.1204 15.1296 14.6145 14.7035 14.1885C14.2774 13.7624 13.7716 13.4244 13.2149 13.1939C12.6582 12.9634 12.0615 12.8448 11.459 12.845H4.578V5.96393C4.578 5.78238 4.61391 5.60266 4.68369 5.43506C4.75346 5.26746 4.85572 5.11533 4.98456 4.98743C5.11339 4.85952 5.26626 4.75838 5.43436 4.68982C5.60246 4.62126 5.78245 4.58761 5.96399 4.58893ZM4.58801 16.5109C4.60901 16.5109 4.629 16.517 4.651 16.517H11.011C11.3759 16.517 11.7259 16.6619 11.984 16.92C12.242 17.178 12.387 17.528 12.387 17.8929V29.179C12.387 29.241 12.398 29.301 12.404 29.361H4.58899L4.58801 16.5109ZM26.575 29.3619V18.0229C26.575 17.658 26.72 17.308 26.978 17.05C27.2361 16.7919 27.5861 16.647 27.951 16.647H34.389H34.405V29.3619H26.575Z" fill="#FAB505"/>
<path d="M45.437 1.10693H55.13V3.72595H51.73V34.1259H48.84V3.72595H45.44L45.437 1.10693Z" fill="#E5A40B"/>
<path d="M61.078 1.10693H63.833V12.5259C64.1701 11.9207 64.6605 11.4148 65.255 11.059C65.8583 10.717 66.5427 10.5442 67.236 10.559C67.716 10.5141 68.1991 10.5996 68.6345 10.8064C69.0699 11.0132 69.4415 11.3336 69.71 11.7339C70.2966 13.0195 70.5467 14.4331 70.437 15.8419V34.1339H67.683V16.4189C67.7519 15.4832 67.6026 14.5442 67.247 13.6759C67.0798 13.4364 66.8569 13.2413 66.5974 13.1072C66.3379 12.9731 66.0497 12.9041 65.7577 12.9063C65.4656 12.9085 65.1785 12.9817 64.9211 13.1196C64.6636 13.2575 64.4436 13.456 64.28 13.6979C63.9194 14.5569 63.766 15.4887 63.832 16.4179V34.1279H61.078V1.10693Z" fill="#E5A40B"/>
<path d="M87.355 17.115V23.944H80.84V28.803C80.7679 29.7543 80.9044 30.7099 81.24 31.603C81.3828 31.8507 81.5938 32.052 81.8479 32.1831C82.102 32.3141 82.3884 32.3692 82.673 32.3419C82.9534 32.3647 83.2343 32.3047 83.481 32.1695C83.7277 32.0342 83.9293 31.8296 84.061 31.581C84.3924 30.6952 84.5289 29.7483 84.461 28.805V26.252H87.349V28.135C87.349 30.6723 87.0056 32.4 86.319 33.318C85.6323 34.236 84.416 34.695 82.67 34.695C81.9959 34.7685 81.314 34.6798 80.6812 34.4363C80.0483 34.1928 79.4829 33.8014 79.032 33.2949C78.338 32.3616 77.991 30.6263 77.991 28.089V17.115C77.991 14.5623 78.3306 12.831 79.0099 11.921C79.6893 11.011 80.9096 10.5556 82.671 10.555C83.345 10.4815 84.027 10.5702 84.6598 10.8137C85.2926 11.0573 85.858 11.4486 86.309 11.955C87.0063 12.8876 87.355 14.6076 87.355 17.115ZM84.467 16.421C84.5379 15.4775 84.4014 14.53 84.067 13.645C83.9314 13.4012 83.7283 13.2017 83.4821 13.0706C83.2358 12.9395 82.9569 12.8824 82.679 12.906C82.3912 12.8831 82.1031 12.9451 81.8503 13.0845C81.5975 13.2239 81.3912 13.4344 81.257 13.69C80.9203 14.5589 80.779 15.4913 80.843 16.421V21.615H84.47L84.467 16.421Z" fill="#E5A40B"/>
<path d="M101.383 10.5999V13.3999H100.913C100.456 13.3527 99.9933 13.4075 99.5596 13.5605C99.1259 13.7136 98.7315 13.961 98.405 14.2849C97.8251 15.1928 97.565 16.2683 97.666 17.3409V34.1349H94.912V11.1149H97.487L97.666 12.5259C98.0186 11.9352 98.5059 11.4363 99.088 11.0699C99.6358 10.73 100.268 10.5515 100.913 10.5549C100.988 10.5577 101.063 10.5651 101.137 10.5769C101.218 10.5902 101.301 10.5979 101.383 10.5999Z" fill="#E5A40B"/>
<path d="M115.793 16.488V34.135H113.221L113.042 32.724C112.705 33.3288 112.214 33.8344 111.62 34.19C111.017 34.5319 110.332 34.7046 109.639 34.69C109.159 34.7349 108.676 34.6495 108.24 34.4426C107.805 34.2358 107.433 33.9154 107.165 33.515C106.578 32.2293 106.327 30.8152 106.437 29.406V24.816C106.365 24.1042 106.46 23.3853 106.714 22.7167C106.969 22.0481 107.376 21.4483 107.904 20.965C108.881 20.2037 110.594 19.7783 113.042 19.689V16.4199C113.114 15.4693 112.98 14.5143 112.65 13.62C112.51 13.3789 112.304 13.1831 112.055 13.056C111.807 12.9289 111.528 12.8758 111.25 12.903C110.982 12.8797 110.713 12.9288 110.471 13.0451C110.229 13.1613 110.022 13.3406 109.873 13.564C109.541 14.2728 109.398 15.0556 109.459 15.836V17.112H106.705V16.4849C106.705 14.1869 107.041 12.6236 107.713 11.7949C108.385 10.9663 109.579 10.552 111.295 10.552C111.935 10.4817 112.583 10.558 113.19 10.7753C113.796 10.9926 114.345 11.3451 114.795 11.806C115.46 12.644 115.792 14.2047 115.793 16.488ZM113.017 21.929C111.987 21.8713 110.966 22.1374 110.095 22.69C109.803 23.0157 109.583 23.3996 109.45 23.8163C109.317 24.2331 109.274 24.6733 109.323 25.108V28.803C109.251 29.7543 109.387 30.7099 109.723 31.603C109.866 31.8507 110.077 32.0521 110.331 32.1832C110.585 32.3142 110.871 32.3693 111.156 32.3419C111.448 32.3627 111.739 32.2988 111.995 32.1577C112.252 32.0167 112.462 31.8046 112.6 31.547C112.953 30.6782 113.102 29.7402 113.036 28.805L113.017 21.929Z" fill="#E5A40B"/>
<path d="M3.12601 42.3398C3.07866 42.2179 2.9981 42.1117 2.89346 42.0332C2.78883 41.9547 2.6643 41.9071 2.534 41.8958C2.40013 41.8927 2.27012 41.9408 2.17038 42.0301C2.07064 42.1195 2.00866 42.2434 1.99701 42.3768C1.99701 42.7768 2.497 42.9228 3.005 43.1358C3.28679 43.2047 3.53817 43.3643 3.72046 43.5899C3.90275 43.8156 4.00588 44.0948 4.01401 44.3848C4.01305 44.5751 3.97393 44.7633 3.89896 44.9382C3.82398 45.1131 3.71467 45.2712 3.57751 45.4032C3.44036 45.5351 3.27816 45.6382 3.10046 45.7063C2.92277 45.7745 2.7332 45.8063 2.543 45.7998C2.20201 45.8092 1.86733 45.7068 1.59 45.5082C1.31266 45.3095 1.10794 45.0257 1.00702 44.6998L1.664 44.4218C1.849 44.8288 2.064 45.1158 2.552 45.1158C2.64245 45.1212 2.73305 45.1079 2.81815 45.0768C2.90324 45.0456 2.98102 44.9973 3.04666 44.9349C3.11231 44.8724 3.16441 44.7971 3.19974 44.7137C3.23506 44.6302 3.25286 44.5404 3.25201 44.4498C3.25201 43.4778 1.29102 43.8108 1.29102 42.4418C1.29203 42.2746 1.32688 42.1094 1.39346 41.956C1.46005 41.8026 1.55697 41.6642 1.67844 41.5493C1.7999 41.4344 1.94339 41.3453 2.10022 41.2873C2.25705 41.2293 2.42399 41.2036 2.591 41.2118C2.83967 41.222 3.08035 41.3026 3.285 41.4443C3.48965 41.5859 3.64986 41.7827 3.74701 42.0118L3.12601 42.3398Z" fill="#E5A40B"/>
<path d="M14.887 43.5149C14.887 43.0629 15.021 42.6212 15.2721 42.2454C15.5232 41.8696 15.8801 41.5767 16.2976 41.4038C16.7151 41.2308 17.1746 41.1856 17.6178 41.2738C18.0611 41.3619 18.4682 41.5796 18.7878 41.8991C19.1073 42.2187 19.325 42.6258 19.4131 43.0691C19.5013 43.5123 19.4561 43.9718 19.2831 44.3893C19.1102 44.8068 18.8173 45.1637 18.4415 45.4148C18.0658 45.6658 17.624 45.7999 17.172 45.7999C16.8719 45.8002 16.5747 45.7412 16.2973 45.6265C16.02 45.5118 15.768 45.3434 15.5557 45.1312C15.3435 44.919 15.1752 44.667 15.0604 44.3896C14.9457 44.1123 14.8868 43.815 14.887 43.5149ZM15.627 43.5059C15.6396 43.8087 15.7408 44.1011 15.9182 44.3468C16.0955 44.5925 16.3412 44.7806 16.6246 44.8878C16.9081 44.9951 17.2167 45.0166 17.5123 44.9499C17.8079 44.8831 18.0774 44.7309 18.2872 44.5123C18.497 44.2937 18.6379 44.0182 18.6925 43.7201C18.747 43.422 18.7127 43.1145 18.5939 42.8357C18.4751 42.557 18.277 42.3192 18.0242 42.1521C17.7714 41.985 17.4751 41.8959 17.172 41.8958C16.9633 41.8949 16.7567 41.9365 16.5645 42.0179C16.3724 42.0993 16.1988 42.219 16.0543 42.3696C15.9098 42.5202 15.7974 42.6985 15.724 42.8938C15.6505 43.0892 15.6176 43.2974 15.627 43.5059Z" fill="#E5A40B"/>
<path d="M31.411 45.6799H30.671V38.0469H31.411V45.6799Z" fill="#E5A40B"/>
<path d="M43.688 43.7559C43.688 44.4869 43.771 45.1159 44.669 45.1159C45.567 45.1159 45.65 44.4869 45.65 43.7559V41.3319H46.39V43.8389C46.39 44.9959 45.955 45.7999 44.669 45.7999C43.383 45.7999 42.948 44.9999 42.948 43.8389V41.3319H43.688V43.7559Z" fill="#E5A40B"/>
<path d="M58.731 45.6798H57.991V42.0158H57.538V41.3298H57.991V39.7668H58.731V41.3298H59.5079V42.0148H58.731V45.6798Z" fill="#E5A40B"/>
<path d="M71.4251 39.6948C71.4282 39.766 71.4168 39.8371 71.3917 39.9038C71.3666 39.9705 71.3282 40.0315 71.2789 40.0829C71.2297 40.1344 71.1704 40.1754 71.1049 40.2034C71.0393 40.2314 70.9688 40.2458 70.8975 40.2458C70.8263 40.2458 70.7557 40.2314 70.6902 40.2034C70.6247 40.1754 70.5654 40.1344 70.5161 40.0829C70.4668 40.0315 70.4285 39.9705 70.4034 39.9038C70.3783 39.8371 70.3669 39.766 70.37 39.6948C70.3759 39.5589 70.4341 39.4305 70.5324 39.3364C70.6307 39.2423 70.7615 39.1898 70.8975 39.1898C71.0336 39.1898 71.1644 39.2423 71.2626 39.3364C71.3609 39.4305 71.4191 39.5589 71.4251 39.6948ZM71.268 45.6808H70.528V41.3318H71.268V45.6808Z" fill="#E5A40B"/>
<path d="M82.639 43.5149C82.639 43.0629 82.773 42.6212 83.0241 42.2454C83.2752 41.8696 83.632 41.5767 84.0496 41.4038C84.4671 41.2308 84.9266 41.1856 85.3698 41.2738C85.8131 41.3619 86.2202 41.5796 86.5397 41.8991C86.8593 42.2187 87.0769 42.6258 87.1651 43.0691C87.2533 43.5123 87.208 43.9718 87.0351 44.3893C86.8622 44.8068 86.5692 45.1637 86.1935 45.4148C85.8177 45.6658 85.3759 45.7999 84.924 45.7999C84.6238 45.8003 84.3265 45.7414 84.0491 45.6267C83.7717 45.512 83.5196 45.3438 83.3074 45.1315C83.0951 44.9192 82.9268 44.6671 82.8121 44.3897C82.6974 44.1123 82.6386 43.815 82.639 43.5149ZM83.379 43.5059C83.3916 43.8087 83.4928 44.1011 83.6702 44.3468C83.8475 44.5925 84.0932 44.7806 84.3766 44.8878C84.6601 44.9951 84.9688 45.0166 85.2643 44.9499C85.5599 44.8831 85.8294 44.7309 86.0392 44.5123C86.249 44.2937 86.3899 44.0182 86.4445 43.7201C86.499 43.422 86.4647 43.1145 86.3459 42.8357C86.2271 42.557 86.029 42.3192 85.7762 42.1521C85.5234 41.985 85.227 41.8959 84.924 41.8958C84.7152 41.8948 84.5084 41.9363 84.3162 42.0177C84.1239 42.099 83.9502 42.2186 83.8056 42.3692C83.661 42.5198 83.5485 42.6982 83.475 42.8936C83.4015 43.089 83.3685 43.2973 83.378 43.5059H83.379Z" fill="#E5A40B"/>
<path d="M99.179 41.8588H99.198C99.3338 41.6556 99.5186 41.4898 99.7352 41.3765C99.9519 41.2633 100.194 41.2063 100.438 41.2108C101.638 41.2108 101.918 42.0808 101.918 43.0978V45.6788H101.178V43.2269C101.178 42.5269 101.122 41.8948 100.262 41.8948C99.244 41.8948 99.179 42.8389 99.179 43.6159V45.6788H98.439V41.3298H99.179V41.8588Z" fill="#E5A40B"/>
<path d="M115.296 42.3398C115.249 42.2175 115.169 42.1109 115.064 42.0323C114.959 41.9538 114.834 41.9064 114.704 41.8958C114.57 41.8927 114.44 41.9408 114.34 42.0301C114.241 42.1195 114.179 42.2434 114.167 42.3768C114.167 42.7768 114.667 42.9228 115.176 43.1358C115.458 43.2049 115.709 43.3646 115.891 43.5902C116.073 43.8158 116.176 44.095 116.184 44.3848C116.183 44.5751 116.144 44.7634 116.069 44.9384C115.994 45.1134 115.885 45.2715 115.748 45.4035C115.611 45.5354 115.448 45.6385 115.271 45.7066C115.093 45.7747 114.903 45.8064 114.713 45.7998C114.372 45.8091 114.037 45.7066 113.76 45.508C113.483 45.3094 113.278 45.0256 113.177 44.6998L113.834 44.4218C114.019 44.8288 114.234 45.1158 114.722 45.1158C114.812 45.1212 114.903 45.1079 114.988 45.0768C115.073 45.0456 115.151 44.9973 115.217 44.9349C115.282 44.8724 115.334 44.7971 115.37 44.7137C115.405 44.6302 115.423 44.5404 115.422 44.4498C115.422 43.4778 113.461 43.8108 113.461 42.4418C113.462 42.2746 113.497 42.1094 113.563 41.956C113.63 41.8026 113.727 41.6642 113.848 41.5493C113.97 41.4344 114.113 41.3453 114.27 41.2873C114.427 41.2293 114.594 41.2036 114.761 41.2118C115.01 41.2218 115.251 41.3023 115.456 41.4439C115.66 41.5856 115.821 41.7825 115.918 42.0118L115.296 42.3398Z" fill="#E5A40B"/>
</g>
<defs>
<clipPath id="clip0_501_179">
<rect width="116.184" height="45.8" fill="white"/>
</clipPath>
</defs>
</svg>
